<?xml version="1.0" encoding="UTF-8"?>
<svg width="269px" height="31px" viewBox="0 0 269 31" version="1.1" xmlns="http://www.w3.org/2000/svg" xmlns:xlink="http://www.w3.org/1999/xlink">
    <title>logo_horizontal</title>
    <g id="Page-1" stroke="none" stroke-width="1" fill="none" fill-rule="evenodd">
        <g id="logo_horizontal" fill-rule="nonzero">
            <path d="M31.1,14.7 C30.9,13.6 29.9,12.8 28.7,12.8 L24.8,12.8 C24.4,12.8 24,12.6 23.9,12.2 C23.8,12 23.7,11.8 23.7,11.6 C23.5,11.2 23.6,10.8 23.9,10.5 C24.6,9.8 25.8,8.6 26.6,7.8 C27.4,7 27.6,5.7 26.9,4.8 C26.1,3.6 24.4,3.5 23.4,4.5 L20.6,7.3 C20.3,7.6 19.9,7.7 19.5,7.5 C19.3,7.4 19.1,7.3 18.9,7.3 C18.5,7.2 18.3,6.8 18.3,6.4 C18.3,5.4 18.3,3.7 18.3,2.5 C18.3,1.4 17.5,0.3 16.4,0.1 C15,-0.1 13.7,1 13.7,2.4 L13.7,6.4 C13.7,6.8 13.5,7.2 13.1,7.3 C12.9,7.4 12.7,7.5 12.5,7.5 C12.1,7.7 11.7,7.6 11.4,7.3 C10.8,6.6 9.6,5.3 8.7,4.5 C7.9,3.7 6.6,3.5 5.7,4.2 C4.5,5 4.4,6.7 5.4,7.6 L8.2,10.4 C8.5,10.7 8.6,11.1 8.4,11.5 C8.3,11.7 8.2,11.9 8.2,12.1 C8.1,12.5 7.7,12.7 7.3,12.7 L3.4,12.7 C2.3,12.7 1.2,13.5 1,14.6 C0.8,16 1.9,17.3 3.3,17.3 L7.3,17.3 C7.7,17.3 8.1,17.5 8.2,17.9 C8.3,18.1 8.4,18.3 8.4,18.5 C8.6,18.9 8.5,19.3 8.2,19.6 C7.5,20.3 6.3,21.5 5.5,22.3 C4.6,23.2 4.5,24.6 5.3,25.5 C5.8,26 6.4,26.3 7,26.3 C7.6,26.3 8.2,26.1 8.6,25.6 L11.4,22.8 C11.7,22.5 12.1,22.4 12.5,22.6 C12.7,22.7 12.9,22.8 13.1,22.8 C13.5,22.9 13.7,23.3 13.7,23.7 C13.7,24.7 13.7,26.4 13.7,27.6 C13.7,28.7 14.5,29.8 15.6,30 C17,30.2 18.3,29.1 18.3,27.7 L18.3,23.7 C18.3,23.3 18.5,22.9 18.9,22.8 C19.1,22.7 19.3,22.6 19.5,22.6 C19.9,22.4 20.3,22.5 20.6,22.8 L23.4,25.6 C23.8,26 24.4,26.3 25,26.3 C25.6,26.3 26.3,26 26.7,25.5 C27.5,24.6 27.3,23.2 26.5,22.3 L23.8,19.6 C23.5,19.3 23.4,18.9 23.6,18.5 C23.7,18.3 23.8,18.1 23.8,17.9 C23.9,17.5 24.3,17.3 24.7,17.3 L28.7,17.3 C30.2,17.3 31.3,16.1 31.1,14.7 Z M16,18.6 C14,18.6 12.4,17 12.4,15 C12.4,13 14,11.4 16,11.4 C18,11.4 19.6,13 19.6,15 C19.6,17 18,18.6 16,18.6 Z" id="Shape" fill="#F2F2F2"></path>
            <g id="Group" transform="translate(61.000000, 3.000000)" fill="#0A79BB">
                <path d="M204.1,0.3 C206.7,0.3 208,1.6 208,4.2 L208,7.6 L204.9,7.6 L204.9,4.3 C204.9,3.5 204.5,3.1 203.7,3.1 L203,3.1 C202.2,3.1 201.8,3.5 201.8,4.3 L201.8,17.6 C201.8,18.4 202.2,18.8 203,18.8 L203.7,18.8 C204.5,18.8 204.9,18.4 204.9,17.6 L204.9,12.8 L203.2,12.8 L203.2,10 L208,10 L208,17.7 C208,20.3 206.7,21.6 204.1,21.6 L202.4,21.6 C199.8,21.6 198.5,20.3 198.5,17.7 L198.5,4.2 C198.5,1.6 199.8,0.3 202.4,0.3 L204.1,0.3 Z M72.8,0.3 C75.4,0.3 76.7,1.6 76.7,4.2 L76.7,8 L73.6,8 L73.6,4.3 C73.6,3.5 73.2,3.1 72.4,3.1 L72,3.1 C71.2,3.1 70.8,3.5 70.8,4.3 L70.8,6.6 C70.8,7.5 71.1,7.9 71.7,8.3 L74.9,10.7 C76.5,11.7 76.9,12.6 76.9,14.3 L76.9,17.7 C76.9,20.3 75.6,21.6 73,21.6 L71.6,21.6 C69,21.6 67.7,20.3 67.7,17.7 L67.7,13.3 L70.8,13.3 L70.8,17.6 C70.8,18.4 71.2,18.8 72,18.8 L72.4,18.8 C73.2,18.8 73.6,18.4 73.6,17.6 L73.6,14.7 C73.6,13.8 73.3,13.4 72.7,13 L69.5,10.6 C68.1,9.6 67.6,8.6 67.6,7 L67.6,4.2 C67.6,1.6 68.9,0.3 71.5,0.3 L72.8,0.3 Z M7.4,0.5 L7.4,3.4 L3.6,3.4 L3.6,9.5 L7.2,9.5 L7.2,12.4 L3.6,12.4 L3.6,21.5 L0.4,21.5 L0.4,0.5 L7.4,0.5 Z M15.8,0.5 L15.8,21.5 L12.6,21.5 L12.6,0.5 L15.8,0.5 Z M28.4,0.5 L28.4,3.4 L24.6,3.4 L24.6,9.5 L28.2,9.5 L28.2,12.4 L24.6,12.4 L24.6,21.5 L21.4,21.5 L21.4,0.5 L28.4,0.5 Z M41.8,0.5 L41.8,3.4 L38.9,3.4 L38.9,21.5 L35.7,21.5 L35.7,3.4 L32.8,3.4 L32.8,0.5 L41.8,0.5 Z M49,0.5 L50.8,9.4 L52.7,0.5 L55.8,0.5 L52.3,14 L52.3,21.5 L49.1,21.5 L49.1,14.4 L45.7,0.5 L49,0.5 Z M85.5,0.5 L85.5,21.5 L82.3,21.5 L82.3,0.5 L85.5,0.5 Z M93.7,0.6 L95.4,8.1 L97.2,0.6 L100.3,0.6 L97.6,10.9 L100.5,21.5 L97.2,21.5 L95.4,14 L93.5,21.5 L90.4,21.5 L93.3,11.2 L90.4,0.6 L93.7,0.6 Z M118.1,0.5 C120.7,0.5 122,1.8 122,4.4 L122,7.5 C122,9.4 121.4,10.3 120.2,10.7 C121.4,11.1 122,12 122,13.7 L122,17.6 C122,20.2 120.7,21.5 118.1,21.5 L112.9,21.5 L112.9,0.5 L118.1,0.5 Z M177.9,0.5 L177.9,21.5 L174.7,21.5 L174.7,0.5 L177.9,0.5 Z M187.2,0.5 L190.2,13.5 L190.2,0.5 L193.1,0.5 L193.1,21.5 L189.6,21.5 L186.3,7.4 L186.3,21.5 L183.4,21.5 L183.4,0.5 L187.2,0.5 Z M157.2,0.4 L158.7,15.4 L160.3,0.4 L163.4,0.4 L165.1,15.4 L166.6,0.4 L169.5,0.4 L166.9,21.4 L163.1,21.4 L161.7,8.7 L160.3,21.4 L156.5,21.4 L154,0.4 L157.2,0.4 Z M132.8,0.3 C135.4,0.3 136.7,1.6 136.7,4.2 L136.7,8.2 C136.7,10.1 136,11 134.9,11.4 C136.1,11.9 136.6,12.7 136.6,14.3 L136.6,21.4 L133.4,21.4 L133.4,14.3 C133.4,13.4 133,12.9 132.1,12.9 L130.7,12.9 L130.7,21.3 L127.5,21.3 L127.5,0.3 L132.8,0.3 Z M149.2,0.4 L149.2,3.4 L145.3,3.4 L145.3,9.3 L149.1,9.3 L149.1,12.2 L145.3,12.2 L145.3,18.5 L149.3,18.5 L149.3,21.4 L142.1,21.4 L142.1,0.4 L149.2,0.4 Z M117.6,12.2 L116.1,12.2 L116.1,18.7 L117.7,18.7 C118.5,18.7 118.9,18.3 118.9,17.5 L118.9,13.5 C118.9,12.6 118.5,12.2 117.6,12.2 Z M132.2,3.3 L130.6,3.3 L130.6,10.2 L132,10.2 C132.9,10.2 133.3,9.8 133.3,8.9 L133.3,4.5 C133.4,3.7 133,3.3 132.2,3.3 Z M117.6,3.3 L116.1,3.3 L116.1,9.4 L117.5,9.4 C118.4,9.4 118.8,9 118.8,8.1 L118.8,4.5 C118.8,3.7 118.4,3.3 117.6,3.3 Z" id="Combined-Shape"></path>
            </g>
        </g>
    </g>
</svg>